<?xml version="1.0" encoding="UTF-8"?><svg id="logo" xmlns="http://www.w3.org/2000/svg" viewBox="0 0 483.63 42.59"><defs><style>.cls-1{fill:#333695;}</style></defs><path class="cls-1" d="M6.32,34.05H0V.11h6.32v33.95Z"/><path class="cls-1" d="M31.5,34.05h-6.23v-14.2c0-3.3-2.26-4.72-4.62-4.72s-4.62,1.41-4.62,4.72v14.2h-6.23V9.72h6.23v2.12c1.08-1.65,3.54-2.78,5.71-2.78,4.95,0,9.76,3.4,9.76,10.56v14.43Z"/><path class="cls-1" d="M47.21,28.44v5.61h-5.99c-4.34,0-6.23-2.31-6.23-6.23V4.2h6.23v5.52h5.99v5.61h-5.99v11.18c0,1.13.28,1.93,1.79,1.93h4.2Z"/><path class="cls-1" d="M55.41,23.54v.14c0,2.88,1.65,4.76,4.62,4.76,2.17,0,3.68-1.04,4.29-2.69h6.32c-.99,5.09-4.67,8.3-10.61,8.3-6.98,0-10.85-4.43-10.85-11.18v-3.11c0-6.74,3.87-11.18,10.85-11.18s10.85,4.43,10.85,11.18v3.77h-15.47ZM55.41,18.35v.05h9.2v-.05c-.19-2.55-1.79-4.15-4.57-4.15s-4.39,1.65-4.62,4.15Z"/><path class="cls-1" d="M80.69,34.05h-6.23V9.72h6.23v2.64c.71-1.6,2.78-3.07,5.66-3.07h1.89v6.08h-2.92c-2.36,0-4.62,1.41-4.62,4.72v13.96Z"/><path class="cls-1" d="M91.22,23.16h6.51c.38,2.78,2.55,4.62,5.71,4.62,2.78,0,4.72-1.04,4.72-3.3,0-1.84-1.08-2.88-3.4-3.49l-5.57-1.51c-5.05-1.37-7.55-4.9-7.55-9.76C91.65,3.12,96.84.1,102.59.1c6.6,0,10.71,3.87,11.41,9.48h-6.51c-.57-2.22-2.88-3.21-5-3.21-2.64,0-4.53,1.04-4.53,3.35,0,1.93,1.51,2.78,3.3,3.25l5.38,1.46c5.09,1.37,7.83,4.48,7.83,10.04,0,5.94-3.87,9.57-11.04,9.57s-11.88-4.34-12.21-10.89Z"/><path class="cls-1" d="M129.56,36.22c-1.32,3.68-1.7,6.37-6.04,6.37h-4.62v-5.61h2.59c1.13,0,1.46-.57,1.65-1.08l.71-1.98-8.68-24.33h6.56l5.42,15.52,5.42-15.52h6.56l-9.57,26.65Z"/><path class="cls-1" d="M138.56,25.71h6.23c.28,1.89,2.5,2.74,4.53,2.74,1.23,0,3.07-.28,3.07-1.89,0-.99-.71-1.56-2.17-1.89l-5.09-1.13c-2.64-.61-5.99-2.69-5.99-7.45s4.29-7.5,9.29-7.5,9.01,2.36,9.43,7.88h-6.37c-.33-1.56-1.7-2.26-3.25-2.26-1.79,0-2.83.71-2.88,1.84,0,1.04.85,1.56,1.89,1.79l5.47,1.23c2.64.61,5.9,2.45,5.9,7.5,0,5.42-4.39,7.5-9.48,7.5s-10.33-2.59-10.56-8.35Z"/><path class="cls-1" d="M181.74,23.54v.14c0,2.88,1.65,4.76,4.62,4.76,2.17,0,3.68-1.04,4.29-2.69h6.32c-.99,5.09-4.67,8.3-10.61,8.3-6.98,0-10.85-4.43-10.85-11.18v-3.11c0-6.74,3.87-11.18,10.85-11.18s10.85,4.43,10.85,11.18v3.77h-15.47ZM181.74,18.35v.05h9.2v-.05c-.19-2.55-1.79-4.15-4.57-4.15s-4.39,1.65-4.62,4.15Z"/><path class="cls-1" d="M222.21,34.05h-6.23v-14.2c0-3.25-2.26-4.72-4.48-4.72s-4.48,1.46-4.48,4.72v14.2h-6.23V9.72h6.23v2.03c1.18-1.65,3.4-2.69,5.52-2.69,2.55,0,4.86.94,6.56,3.21,1.74-2.12,4.24-3.21,7.59-3.21,6.18,0,10.71,3.44,10.71,10.56v14.43h-6.23v-14.2c0-3.25-2.26-4.72-4.48-4.72s-4.48,1.46-4.48,4.72v14.2Z"/><path class="cls-1" d="M239.75,25.71h6.23c.28,1.89,2.5,2.74,4.53,2.74,1.23,0,3.07-.28,3.07-1.89,0-.99-.71-1.56-2.17-1.89l-5.09-1.13c-2.64-.61-5.99-2.69-5.99-7.45s4.29-7.5,9.29-7.5,9.01,2.36,9.43,7.88h-6.37c-.33-1.56-1.7-2.26-3.25-2.26-1.79,0-2.83.71-2.88,1.84,0,1.04.85,1.56,1.89,1.79l5.47,1.23c2.64.61,5.9,2.45,5.9,7.5,0,5.42-4.39,7.5-9.48,7.5s-10.33-2.59-10.56-8.35Z"/><path class="cls-1" d="M172.88,28.44v5.61h-5.99c-4.34,0-6.23-2.31-6.23-6.23V4.2h6.23v5.52h5.99v5.61h-5.99v11.18c0,1.13.28,1.93,1.79,1.93h4.2Z"/><path class="cls-1" d="M286.99,34.22h-6.37V.97h6.37v33.25Z"/><path class="cls-1" d="M312.4,34.22h-6.27v-14.3c0-3.33-2.28-4.75-4.65-4.75s-4.66,1.43-4.66,4.75v14.3h-6.27V9.71h6.27v2.14c1.09-1.66,3.56-2.8,5.75-2.8,4.99,0,9.83,3.42,9.83,10.64v14.54Z"/><path class="cls-1" d="M335.91,24.1v.14c0,2.9,1.66,4.8,4.65,4.8,2.19,0,3.71-1.05,4.32-2.71h6.36c-1,5.13-4.7,8.36-10.69,8.36-7.03,0-10.93-4.47-10.93-11.26v-3.14c0-6.79,3.9-11.26,10.93-11.26s10.93,4.47,10.93,11.26v3.8h-15.58ZM335.91,18.88v.05h9.26v-.05c-.19-2.56-1.8-4.18-4.61-4.18s-4.42,1.66-4.65,4.18Z"/><path class="cls-1" d="M364.17,28.57v5.65h-3.04c-4.37,0-6.27-2.33-6.27-6.27V.97h6.27v25.65c0,1.14.29,1.95,1.81,1.95h1.23Z"/><path class="cls-1" d="M376.09,28.57v5.65h-3.04c-4.37,0-6.27-2.33-6.27-6.27V.97h6.27v25.65c0,1.14.29,1.95,1.81,1.95h1.23Z"/><path class="cls-1" d="M385.07,6.53h-6.27V.97h6.27v5.56ZM385.07,34.22h-6.27V9.71h6.27v24.51Z"/><path class="cls-1" d="M413.67,23.11c-.29,6.98-4.8,11.59-12.54,11.59s-12.54-4.94-12.54-12.3v-9.6c0-7.36,4.56-12.3,12.54-12.3s12.25,4.61,12.54,11.59h-6.41c-.33-3.37-2.9-5.27-6.13-5.27-3.47,0-6.18,2.14-6.18,5.99v9.6c0,3.85,2.71,5.99,6.18,5.99,3.23,0,5.79-1.85,6.13-5.27h6.41Z"/><path class="cls-1" d="M431.48,18.26c-.43-2.19-1.99-3.56-4.56-3.56-2.19,0-3.71,1.04-4.32,2.71h-6.32c1-5.13,4.66-8.36,10.64-8.36,7.03,0,10.93,4.47,10.93,11.26v13.92h-6.27v-2.8c-1.14,1.85-3.09,3.28-6.84,3.28-5.6,0-8.93-2.76-8.93-7.27,0-3.56,1.23-5.7,4.65-7.32,2.42-1.14,7.31-1.52,11.02-1.8v-.05ZM422.07,26.72c0,1.19.9,2.47,3.71,2.47,3.23,0,5.79-1.8,5.79-4.89v-.81c-3.56.24-6.98.52-8.17,1.14-1.05.52-1.33,1.05-1.33,2.09Z"/><path class="cls-1" d="M448.05,34.22h-6.27V9.71h6.27v2.66c.71-1.61,2.8-3.09,5.7-3.09h1.9v6.13h-2.94c-2.38,0-4.66,1.43-4.66,4.75v14.06Z"/><path class="cls-1" d="M463.06,24.1v.14c0,2.9,1.66,4.8,4.66,4.8,2.19,0,3.71-1.05,4.32-2.71h6.36c-1,5.13-4.7,8.36-10.69,8.36-7.03,0-10.93-4.47-10.93-11.26v-3.14c0-6.79,3.9-11.26,10.93-11.26s10.93,4.47,10.93,11.26v3.8h-15.58ZM463.06,18.88v.05h9.26v-.05c-.19-2.56-1.8-4.18-4.61-4.18s-4.42,1.66-4.66,4.18Z"/><path class="cls-1" d="M327.79,28.6v5.61h-5.99c-4.34,0-6.23-2.31-6.23-6.23V4.36h6.23v5.52h5.99v5.61h-5.99v11.18c0,1.13.28,1.93,1.79,1.93h4.2Z"/><path class="cls-1" d="M475.83.95v5.35h-.96V.95h-1.77v-.95h4.51v.95h-1.77Z"/><path class="cls-1" d="M482.67,0h.96v6.3h-.95V1.93l-1.3,2.68h-.79l-1.3-2.68v4.38h-.95V0h.96l1.68,3.48,1.68-3.48Z"/></svg>